<?xml version="1.0" encoding="utf-8"?>
<!-- Generator: Adobe Illustrator 16.0.0, SVG Export Plug-In . SVG Version: 6.00 Build 0)  -->
<!DOCTYPE svg PUBLIC "-//W3C//DTD SVG 1.1//EN" "http://www.w3.org/Graphics/SVG/1.1/DTD/svg11.dtd">
<svg version="1.1" xmlns="http://www.w3.org/2000/svg" xmlns:xlink="http://www.w3.org/1999/xlink" x="0px" y="0px"
	 width="773.097px" height="605.794px" viewBox="0 0 773.097 605.794" enable-background="new 0 0 773.097 605.794"
	 xml:space="preserve">
<g id="Layer_2" display="none">
	<circle display="inline" stroke="#000000" stroke-miterlimit="10" cx="406.95" cy="282.382" r="497"/>
</g>
<g id="Layer_1">
	<g>
		<path fill="#414042" d="M672.94,18.578c24.776,8.745,93.278-42.267,97.65,14.575l-2.915,1.457
			c-2.915,1.458-7.287,2.915-10.202,4.373c1.457,1.458,2.915,1.458,4.372,2.915l1.458,4.373
			c-36.438,14.575-58.299,42.267-55.385,83.076l1.458,1.458c-48.097,32.064-49.555,94.736-94.736,132.63
			c-49.554,42.267-109.311-11.66-150.12,30.607l-4.372,7.287c-2.915,27.692-24.777,45.182-27.692,71.416
			c-1.457,13.117,0,32.064,2.915,43.725c2.915,13.117,10.202,23.319,13.117,34.979c2.915,14.575-7.287,23.319-8.745,36.437
			c-2.915,13.118-1.457,29.15,0,40.81c2.915,24.777,11.66,58.3,42.268,53.927v2.915c0,4.372,1.457,10.202,1.457,14.575
			c-11.66,1.457-21.862-1.458-33.521-2.915h-2.915c-11.66-39.353-29.15-74.331-29.15-115.141c0-30.607-8.744-67.044-2.914-94.736
			l-7.288-2.915c-21.862,32.064-11.66,72.874-7.287,107.854c4.373,36.437,34.979,72.874,33.521,106.396
			c-5.829,2.915-14.574,1.458-20.404,0c4.372-18.947-18.947-29.149-23.319-46.639c-4.373-17.49,2.915-43.725,0-62.672
			c-4.373-37.895-10.203-78.704-21.862-113.684v-2.915c2.915-11.659,7.287-24.776,13.117-36.437v-1.458
			c-4.373-45.182-71.417-20.404-102.023-21.861c-36.437-1.458-74.332-13.117-109.311-23.32v2.915
			c23.32,29.149,16.032,46.64,4.373,77.246c-10.202,27.692-14.575,65.587-10.202,94.736c5.83,29.149,14.575,56.842,34.979,80.161
			c17.49,20.405,40.809,32.064,58.299,52.47l-4.373-1.458c-14.575,0-29.149,0-42.267,0l1.458-2.915
			c0-24.776-26.235-46.639-42.267-62.671c-16.032-17.49-26.234-36.438-45.182-51.012v-2.915c8.745-24.777,7.288-77.246-8.745-97.651
			l-4.372-1.457c-33.522,51.012-40.81,150.12,2.915,195.302v1.458c-1.458,8.744,1.457,18.946,7.287,26.234
			c-10.202,0-21.862,2.915-33.522,2.915l-2.915-2.915c4.373-11.66,2.915-26.234,4.373-39.353l1.458,5.83
			c-1.458-16.032-7.288-30.606-10.203-45.182c-4.372-20.404-10.202-21.862-18.947-39.352c-17.49-32.064,11.66-52.47,14.575-81.619
			c4.372-46.64-7.288-102.023-8.745-148.663v-2.915c-13.117,18.947-18.947,43.724-26.234,64.129
			c-7.288,16.032-24.777,43.724-23.32,59.756c-2.915,7.288-8.745,13.117-14.575,17.49C2.5,381.49,2.5,371.288,2.5,362.543
			l2.915,2.915c27.692-33.521,36.437-74.331,45.182-116.598c4.373-23.32,10.203-42.267,32.064-55.384
			c16.032-10.202,37.895-11.66,52.469-24.777c26.235-24.777,32.064-87.449,84.534-69.959c40.81,14.575,65.587,59.756,88.906,0
			c13.117-32.064,53.927-78.704,93.279-48.097c13.118,10.203,20.405,32.065,32.064,46.64c10.203,14.575,23.32,27.692,36.438,39.352
			l-10.202-5.83c27.691,33.522,72.874,48.097,112.226,24.777c49.555-29.149,43.725-71.416,56.842-119.513l2.915-5.83
			c-7.288-8.745-5.83-21.862,2.915-27.692c1.457,5.83,8.744,8.745,10.202,11.66h2.915c11.659-13.118,30.606,1.457,46.639,0"/>
		<g>
			<path fill="#414042" d="M672.275,20.989c27.842,9.208,91.261-40.473,95.815,12.165c0.413-0.72,0.825-1.439,1.238-2.159
				c-4.291,2.145-8.779,3.792-13.117,5.83c-1.361,0.639-1.714,2.97-0.506,3.926c0.962,0.762,3.745,1.86,4.018,2.679
				c0.39,1.169,0.779,2.337,1.169,3.506c0.582-1.025,1.164-2.05,1.746-3.075c-18.272,7.424-34.774,18.63-45.634,35.387
				c-5.342,8.241-8.727,17.674-10.493,27.297c-0.941,5.132-1.309,10.359-1.352,15.57c-0.034,4.072-0.491,7.519,2.449,10.458
				c0.169-1.309,0.337-2.618,0.506-3.926c-39.221,26.571-48.965,74.767-75.302,111.455c-14.731,20.521-34.692,35.682-60.402,37.854
				c-21.67,1.832-43.096-3.962-64.738-3.731c-18.573,0.198-38.3,6.872-48.24,23.44c-2.254,3.756-2.299,7.8-3.358,12.042
				c-1.607,6.435-4.416,12.499-7.442,18.371c-5.359,10.397-11.686,20.235-15.647,31.304c-4.172,11.649-4.001,24.404-3.151,36.584
				c0.873,12.525,3.334,24.526,8.286,36.089c2.636,6.154,5.624,12.115,7.554,18.548c2.089,6.961-0.115,13.831-2.882,20.229
				c-4.982,11.524-7.216,22.839-7.229,35.443c-0.027,28.457,6.236,83.929,46.448,78.849c-0.833-0.833-1.667-1.667-2.5-2.5
				c0,5.896,1.28,11.618,1.457,17.49c0.833-0.833,1.667-1.667,2.5-2.5c-12.455,1.325-24.139-2.915-36.437-2.915
				c0.804,0.612,1.607,1.224,2.411,1.835c-10.429-34.881-26.279-68.663-28.779-105.433c-0.579-8.524-0.362-17.079-0.964-25.611
				c-0.608-8.629-1.559-17.231-2.397-25.839c-1.663-17.07-3.321-34.701,0.076-51.664c0.291-1.455-0.41-2.541-1.746-3.076
				c-2.43-0.972-4.859-1.943-7.288-2.915c-1.068-0.427-2.252,0.29-2.824,1.149c-21.802,32.784-12.234,72.853-7.628,109.115
				c2.359,18.576,10.318,35.675,17.947,52.573c7.63,16.902,16.149,34.844,15.574,53.822c0.413-0.72,0.825-1.439,1.238-2.159
				c-5.786,2.506-12.586,1.166-18.478-0.252c0.582,1.025,1.164,2.051,1.746,3.076c4.286-21.287-20.143-31.529-23.879-50.589
				c-2.518-12.845,0.201-26.776,1.041-39.677c0.904-13.895-1.243-27.527-3.035-41.275c-3.859-29.619-8.847-59.248-17.708-87.826
				c-0.75-2.419-1.512-4.387-1.512-6.904c0-2.919,1.788-6.652,2.621-9.443c2.327-7.797,5.201-15.43,8.601-22.82
				c1.945-4.229,2.052-6.242,1.177-10.82c-0.729-3.812-2.253-7.505-4.354-10.759c-6.769-10.484-19.838-13.402-31.475-14.073
				c-14.828-0.855-29.749,1.75-44.403,3.646c-18.38,2.377-35.779,1.447-54.132-1.63c-26.516-4.444-52.326-12.368-78.088-19.89
				c-1.565-0.457-3.165,0.805-3.165,2.411c0,1.128-0.214,2.476,0.089,3.58c0.73,2.656,4.019,5.545,5.617,7.892
				c3.737,5.484,6.657,11.455,8.369,17.872c2.917,10.937,0.261,22.151-3.17,32.621c-4.08,12.445-9.193,24.353-12.307,37.12
				c-3.236,13.27-5.05,26.912-5.822,40.539c-1.524,26.891,3.529,53.235,13.508,78.205c4.816,12.052,11.178,23.562,19.252,33.744
				c8.773,11.064,19.205,20.196,30.241,28.927c11.369,8.994,22.841,17.816,32.404,28.796c0.811-1.393,1.622-2.785,2.432-4.179
				c-6.235-2.078-12.334-1.547-18.902-1.547c-9.467,0-18.934,0-28.401,0c0.72,1.254,1.439,2.508,2.159,3.762
				c4.13-8.26-0.315-18.564-4.306-26.25c-5.492-10.578-13.925-19.604-22.24-28.006c-8.858-8.951-17.72-17.42-25.557-27.333
				c-8.506-10.76-16.528-21.865-26.478-31.377c-0.705-0.674-7.07-5.985-7.07-5.196c0-1.809,0.287-3.012,0.819-4.74
				c1.423-4.623,2.289-9.416,2.98-14.195c1.537-10.619,1.803-21.4,1.246-32.105c-0.553-10.638-2.11-21.318-5.108-31.55
				c-1.229-4.195-2.845-8.281-4.79-12.194c-1.461-2.94-3.308-7.083-6.594-8.178c-1.168-0.39-2.337-0.779-3.505-1.169
				c-1.093-0.364-2.233,0.242-2.823,1.149c-21.895,33.672-29.803,76.963-27.497,116.598c1.142,19.619,5.328,39.206,13.804,57.001
				c3.991,8.378,9.204,16.152,15.412,23.045c1.359,1.509,0.854-0.281,0.854,1c0,1.062-0.239,2.289-0.326,3.341
				c-0.229,2.777,0.165,5.574,0.612,8.308c0.963,5.887,3.76,11.52,7.342,16.226c0.72-1.254,1.439-2.508,2.159-3.762
				c-6.952,0.101-13.818,1.181-20.708,2.02c-3.648,0.444-7.302,0.739-10.974,0.872c-0.707,0.025-0.028,0.801-1.22-0.392
				c-0.589-0.589-1.179-1.179-1.768-1.768c0.214,0.811,0.429,1.621,0.643,2.433c4.49-12.828,3.111-26.698,4.462-40.018
				c-1.637,0.222-3.274,0.443-4.911,0.665c0.486,1.943,0.972,3.887,1.458,5.83c0.671,2.686,5.2,2.18,4.911-0.665
				c-1.478-14.557-6.26-28.306-9.571-42.482c-2.523-10.803-5.618-19.937-11.686-29.248c-6.547-10.046-13.218-20.762-13.446-33.098
				c-0.202-10.917,5.068-21.189,9.704-30.751c4.505-9.292,9.09-18.869,10.274-29.254c1.604-14.078,1.311-28.398,0.61-42.523
				c-1.476-29.752-5.904-59.263-8.183-88.95c-0.547-7.124-1.021-14.276-1.021-21.423c0-2.605-3.306-3.255-4.659-1.262
				c-15.54,22.899-19.106,50.721-31.598,74.961c-5.488,10.65-11.161,21.261-15.191,32.573c-1.679,4.712-2.871,9.604-3.17,14.605
				c-0.462,7.711-7.441,13.856-13.272,18.339c1.224,0.498,2.448,0.996,3.672,1.493C4.984,380.635,5.002,371.563,5,362.543
				c-1.422,0.589-2.845,1.179-4.268,1.768c0.972,0.972,1.943,1.943,2.915,2.915c0.89,0.891,2.672,1.058,3.535,0
				c17.212-21.083,27.855-45.85,35.212-71.87c3.805-13.455,6.723-27.151,9.576-40.833c2.464-11.814,4.474-23.752,9.678-34.751
				c5.325-11.255,14.134-19.454,24.785-25.641c10.802-6.274,23.404-8.947,34.817-13.882c17.679-7.646,26.684-22.607,35.511-38.822
				c7.579-13.923,15.11-30.156,29.158-38.706c16.937-10.308,37.162-1.118,52.439,7.872c12.766,7.512,26.301,19.885,41.772,20.737
				c18.82,1.036,26.273-22.098,32.442-35.539c12.538-27.317,44.107-64.016,77.845-49.231c18.328,8.031,25.547,27.64,35.422,43.542
				c11.368,18.306,26.753,34.026,42.743,48.3c1.01-1.309,2.02-2.617,3.029-3.926c-3.4-1.943-6.802-3.886-10.202-5.83
				c-2.585-1.477-4.798,1.815-3.029,3.926c15.456,18.45,36.581,32.039,60.549,35.895c24.132,3.882,47.901-4.058,66.881-18.976
				c16.958-13.329,27.132-31.204,32.78-51.795c2.82-10.279,4.607-20.823,6.551-31.292c0.991-5.334,2.022-10.66,3.16-15.965
				c1.07-4.987,1.812-10.587,4.099-15.161c0.63-1.259,1.26-2.519,1.89-3.778c0.557-1.114,0.346-2.08-0.392-3.029
				c-5.62-7.241-5.342-18.14,2.409-23.766c-1.224-0.498-2.448-0.996-3.673-1.494c0.826,2.508,2.103,4.447,3.904,6.367
				c1.966,2.095,4.995,3.442,6.55,5.89c2.758,4.341,8.303-1.144,10.479-2.51c6.118-3.842,14.794-0.999,21.143,0.657
				c6.591,1.718,13.219,3.528,20.092,3.091c3.201-0.203,3.222-5.205,0-5c-10.014,0.636-19.232-3.848-29.007-5.137
				c-4.479-0.591-8.826-0.51-13.044,1.246c-1.565,0.652-3.075,1.556-4.347,2.686c-1.438,1.279-0.146,1.205-1.268,1.205
				c-0.63,0-1.259,0-1.889,0c0.72,0.413,1.439,0.826,2.159,1.238c-2.735-4.306-8.263-5.938-9.95-11.063
				c-0.463-1.405-2.298-2.493-3.673-1.494c-10.566,7.67-11.136,21.68-3.421,31.619c-0.131-1.01-0.261-2.02-0.392-3.029
				c-8.38,16.759-9.529,37.014-13.319,55.219c-4.207,20.207-11.071,39.363-25.86,54.303c-17.534,17.713-42.013,27.819-66.946,25.589
				c-24.467-2.188-46.454-16.579-61.93-35.051c-1.01,1.309-2.02,2.618-3.029,3.926c3.4,1.943,6.802,3.886,10.202,5.83
				c2.419,1.382,5.193-1.995,3.029-3.926c-11.154-9.958-21.784-20.472-31.106-32.186c-8.38-10.53-14.825-21.993-21.563-33.584
				C413.579,59,406.932,50.229,396.756,44.203c-8.961-5.307-19.294-6.952-29.501-5.343c-21.086,3.323-38.082,21.176-49.584,37.924
				c-6.417,9.342-10.305,19.476-15.125,29.631c-3.608,7.602-8.773,16.623-17.329,19.316c-6.535,2.057-13.576-1.106-19.273-4.091
				c-7.669-4.018-14.782-9.073-22.146-13.607c-15.191-9.353-33.336-18.294-51.574-13.424c-15.187,4.056-24.881,18.061-32.363,30.879
				c-8.188,14.03-14.608,30.004-26.498,41.444c-7.576,7.288-18.47,10.722-28.164,14.087c-9.262,3.215-18.177,6.626-26.45,11.969
				c-15.714,10.147-23.835,26.233-28.188,43.919c-5.332,21.668-8.779,43.65-15.317,65.046c-6.814,22.298-16.79,43.601-31.596,61.738
				c1.178,0,2.357,0,3.535,0c-0.972-0.972-1.943-1.943-2.915-2.915C2.726,359.232,0,360.362,0,362.543
				c0.002,9.488,0.091,18.96,1.547,28.357c0.23,1.486,2.468,2.419,3.672,1.493c5.171-3.974,9.7-8.384,13.225-13.902
				c3.224-5.049,2.314-10.265,3.665-15.913c2.955-12.362,9.495-23.891,15.295-35.092c2.322-4.484,5.17-9.06,6.859-13.832
				c2.457-6.944,4.669-13.969,6.956-20.97c4.842-14.821,10.216-29.58,19.026-42.563c-1.553-0.42-3.106-0.841-4.659-1.262
				c0,27.292,4.369,54.629,7,81.747c1.433,14.769,2.524,29.577,2.706,44.419c0.159,12.965,0.15,26.332-4.178,38.688
				c-6.935,19.798-21.192,37.025-15.347,59.174c2.804,10.624,9.77,19.796,15.443,29.014c6.595,10.715,8.079,23.429,11.354,35.367
				c2.653,9.669,5.325,19.315,6.341,29.321c1.637-0.222,3.274-0.443,4.911-0.665c-0.486-1.943-0.972-3.887-1.458-5.83
				c-0.729-2.914-4.641-1.994-4.911,0.665c-1.306,12.879,0.056,26.289-4.283,38.688c-0.289,0.826,0.045,1.835,0.643,2.433
				c0.972,0.972,1.943,1.943,2.915,2.915c1.869,1.87,6.81,0.573,9.118,0.399c8.752-0.66,17.375-2.455,26.171-2.582
				c1.71-0.024,3.361-2.182,2.159-3.762c-3.922-5.154-6.425-10.987-7.18-17.442c-0.319-2.733,1.646-8.509-0.499-10.756
				c-6.404-6.715-11.516-14.359-15.684-22.634c-8.832-17.527-12.601-37.45-13.732-56.903c-2.228-38.29,5.772-80.254,26.893-112.735
				c-0.941,0.383-1.882,0.766-2.823,1.149c4.393,1.464,3.7,1.02,6.128,5.213c2.325,4.016,3.911,8.415,5.27,12.835
				c3.137,10.207,4.447,20.949,5,31.58c0.551,10.588,0.128,21.309-1.493,31.79c-0.668,4.321-1.632,8.597-2.919,12.776
				c-0.988,3.21-1.45,6.027,1.399,8.26c10.718,8.397,19.186,19.229,27.451,29.936c7.471,9.678,15.107,18.85,23.892,27.359
				c8.608,8.338,17.179,16.818,24.084,26.661c4.835,6.893,12.976,20.192,8.803,28.538c-0.832,1.663,0.17,3.762,2.159,3.762
				c8.813,0,17.625,0,26.437,0c6.626,0,13.229-0.735,19.538,1.369c2.542,0.848,3.963-2.421,2.432-4.179
				c-18.419-21.148-43.792-34.571-61.593-56.396c-9.051-11.098-15.736-24.036-20.774-37.385c-4.801-12.723-8.8-26.576-10.593-40.076
				c-3.622-27.261-0.247-56.088,7.599-82.332c6.439-21.539,18.95-42.337,11.418-65.339c-1.608-4.911-4.101-9.515-6.831-13.88
				c-1.561-2.496-3.323-4.862-5.104-7.202c-0.856-1.124-0.838-1.419-0.838-3.15c-1.055,0.804-2.11,1.607-3.165,2.411
				c29.585,8.637,59.186,17.543,89.815,21.65c10.615,1.424,21.3,2.274,31.987,1.369c8.518-0.721,16.981-2.043,25.459-3.113
				c15.704-1.982,34.913-5.002,49.629,2.554c7.037,3.613,10.814,10.189,12.263,17.768c0.99,5.177-2.765,10.07-4.688,14.815
				c-2.866,7.076-5.164,14.38-7.164,21.744c-2.271,8.359,2.007,16.174,4.224,24.248c3.198,11.647,5.725,23.474,7.949,35.342
				c2.332,12.439,4.209,24.964,5.887,37.507c1.485,11.102,3.467,22.428,3.591,33.642c0.112,10.179-1.284,20.341-1.897,30.487
				c-0.523,8.655-0.842,18.367,2.614,26.518c5.859,13.823,25.335,24.73,21.982,41.379c-0.262,1.301,0.354,2.741,1.746,3.076
				c7.399,1.78,15.154,2.855,22.331-0.252c0.797-0.346,1.214-1.355,1.238-2.159c0.521-17.189-6.146-33.453-12.931-48.911
				c-7.667-17.465-16.479-34.684-20.001-53.595c-3.389-18.194-5.888-37.235-6.69-55.721c-0.836-19.271,2.207-38.461,13.046-54.761
				c-0.94,0.383-1.882,0.766-2.823,1.149c2.429,0.972,4.859,1.943,7.288,2.915c-0.582-1.025-1.164-2.051-1.746-3.076
				c-3.27,16.326-2.091,33.074-0.582,49.531c0.843,9.204,1.864,18.39,2.598,27.604c0.726,9.102,0.582,18.205,1.092,27.31
				c2.083,37.19,18.432,71.555,28.957,106.763c0.32,1.068,1.28,1.835,2.411,1.835c12.317,0,23.952,4.243,36.437,2.915
				c1.321-0.141,2.544-1.031,2.5-2.5c-0.177-5.87-1.457-11.597-1.457-17.49c0-1.233-1.145-2.671-2.5-2.5
				c-10.247,1.295-19.014-1.64-25.765-9.548c-6.317-7.4-9.324-17.475-11.464-26.771c-2.56-11.12-3.726-22.731-4.154-34.113
				c-0.266-7.08,0.086-14.193,1.526-21.139c1.258-6.072,3.351-11.328,5.747-17.045c2.094-4.997,3.555-9.948,3.603-15.4
				c0.055-6.189-2.711-12.178-5.117-17.74c-2.752-6.358-5.754-12.546-7.751-19.201c-1.941-6.471-2.864-13.282-3.531-19.982
				c-1.276-12.834-1.436-26.132,2.701-38.473c3.879-11.575,10.998-21.849,16.46-32.691c2.516-4.995,4.635-10.183,6.234-15.542
				c1.378-4.617,1.29-9.022,3.741-13.108c5.172-8.621,14.31-14.142,23.752-17.234c20.227-6.626,42.772-1.044,63.362,0.603
				c22.257,1.779,44.657-1.146,62.588-15.515c18.482-14.813,30.888-34.74,41.496-55.607c14.66-28.838,27.406-59.821,55.199-78.65
				c1.321-0.895,1.704-2.729,0.506-3.926c-1.842-1.842-1.018-6.419-0.94-9.735c0.109-4.707,0.695-9.378,1.621-13.99
				c1.683-8.382,4.979-16.304,9.497-23.541c9.76-15.638,25.853-26.266,42.646-33.089c1.206-0.49,2.214-1.671,1.746-3.075
				c-0.46-1.377-0.919-2.753-1.378-4.13c-0.77-2.309-3.356-2.883-5.096-4.26c-0.168,1.309-0.337,2.618-0.506,3.926
				c4.34-2.038,8.822-3.683,13.117-5.83c0.723-0.361,1.309-1.345,1.238-2.159c-0.866-10.011-3.674-20.297-12.607-25.999
				c-7.911-5.05-18.34-4.132-27.129-2.646c-11.17,1.889-21.953,5.68-32.824,8.764c-8.24,2.337-18.413,5.711-26.925,2.896
				C670.535,15.152,669.229,19.981,672.275,20.989L672.275,20.989z"/>
		</g>
	</g>
</g>
</svg>
